<svg width="14" height="13" viewBox="0 0 14 13" fill="none" xmlns="http://www.w3.org/2000/svg">
<g id="Group-4">
<path id="Shape-35" d="M8.68652 0.349609V3.37262L11.3202 1.86336L8.68652 0.349609Z" fill="#0CDBD5"/>
<path id="Shape-36" opacity="0.9" d="M11.3193 1.86328V4.88629L13.953 3.37277L11.3193 1.86328Z" fill="#0CDBD5"/>
<path id="Shape-37" opacity="0.8" d="M8.68652 3.37207V6.39486L11.3202 4.8856L8.68652 3.37207Z" fill="#0CDBD5"/>
<path id="Shape-38" opacity="0.8" d="M11.3193 4.88623V7.90902L13.953 6.39549L11.3193 4.88623Z" fill="#0CDBD5"/>
<path id="Shape-39" opacity="0.8" d="M8.68652 6.39502V9.41781L11.3202 7.90855L8.68652 6.39502Z" fill="#0CDBD5"/>
<path id="Shape-40" d="M11.3193 7.90869V10.9315L13.953 9.41795L11.3193 7.90869Z" fill="#0CDBD5"/>
<path id="Shape-41" opacity="0.4" d="M1.87891 3.271V6.29378L4.51254 4.78026L1.87891 3.271Z" fill="#0CDBD5"/>
<path id="Shape-42" opacity="0.2" d="M5.20215 4.39404V7.41683L7.83128 5.90757L5.20215 4.39404Z" fill="#0CDBD5"/>
<path id="Shape-43" opacity="0.3" d="M3.25 6.30762V9.3304L5.88363 7.81688L3.25 6.30762Z" fill="#0CDBD5"/>
<path id="Shape-44" opacity="0.9" d="M4.98535 8.5874V11.6102L7.61448 10.0967L4.98535 8.5874Z" fill="#0CDBD5"/>
<path id="Shape-45" opacity="0.7" d="M8.66602 9.88867V12.911L11.2951 11.3975L8.66602 9.88867Z" fill="#0CDBD5"/>
<path id="Shape-46" opacity="0.9" d="M5.64062 2.90234V5.92513L8.26976 4.41587L5.64062 2.90234Z" fill="#0CDBD5"/>
<path id="Shape-47" opacity="0.8" d="M8.68637 0.349609V3.37262L6.05273 1.86336L8.68637 0.349609Z" fill="#0CDBD5"/>
<path id="Shape-48" opacity="0.6" d="M5.64047 1.63379V4.6559L3.00684 3.14305L5.64047 1.63379Z" fill="#0CDBD5"/>
<path id="Shape-49" opacity="0.6" d="M8.27328 3.13037V6.15316L5.63965 4.63963L8.27328 3.13037Z" fill="#0CDBD5"/>
<path id="Shape-50" opacity="0.95" d="M5.19027 4.39404V7.41683L2.55664 5.90757L5.19027 4.39404Z" fill="#0CDBD5"/>
<path id="Shape-51" opacity="0.6" d="M8.68577 6.39502V9.41781L6.05664 7.90855L8.68577 6.39502Z" fill="#0CDBD5"/>
<path id="Shape-52" opacity="0.55" d="M3.24962 7.09961V10.1224L0.616211 8.60865L3.24962 7.09961Z" fill="#0CDBD5"/>
<path id="Shape-53" d="M13.953 3.37207V6.39486L11.3193 4.8856L13.953 3.37207Z" fill="#0CDBD5"/>
<path id="Shape-54" opacity="0.95" d="M11.3202 4.88623V7.90902L8.68652 6.39549L11.3202 4.88623Z" fill="#0CDBD5"/>
<path id="Shape-55" opacity="0.9" d="M13.953 6.39502V9.41781L11.3193 7.90855L13.953 6.39502Z" fill="#0CDBD5"/>
<path id="Shape-56" opacity="0.7" d="M11.3202 7.90869V10.9315L8.68652 9.41795L11.3202 7.90869Z" fill="#0CDBD5"/>
<path id="Shape-57" opacity="0.4" d="M8.10336 9.16699V12.1898L5.46973 10.6805L8.10336 9.16699Z" fill="#0CDBD5"/>
<path id="Shape-58" d="M11.3202 1.86328V4.88629L8.68652 3.37277L11.3202 1.86328Z" fill="#0CDBD5"/>
</g>
</svg>
